<svg id="svg" version="1.1" width="400" height="400" viewBox="0 0 400 400" xmlns="http://www.w3.org/2000/svg" xmlns:xlink="http://www.w3.org/1999/xlink"><g id="svgg"><path id="path0" d="M8.617 206.524 C 7.584 207.152,7.104 207.648,6.500 208.710 C 5.766 210.000,5.766 390.000,6.500 391.290 C 7.129 392.397,7.603 392.871,8.710 393.500 C 10.000 394.234,190.000 394.234,191.290 393.500 C 192.397 392.871,192.871 392.397,193.500 391.290 C 194.234 390.000,194.234 210.000,193.500 208.710 C 192.871 207.603,192.397 207.129,191.290 206.500 C 190.037 205.787,9.789 205.811,8.617 206.524 M87.000 238.660 C 88.320 238.774,89.571 239.032,89.780 239.234 C 89.989 239.435,90.471 239.600,90.851 239.600 C 93.229 239.600,102.000 246.402,102.000 248.246 C 102.000 248.551,102.180 248.800,102.400 248.800 C 102.620 248.800,102.800 249.160,102.800 249.600 C 102.800 250.040,102.980 250.400,103.200 250.400 C 103.420 250.400,103.600 250.760,103.600 251.200 C 103.600 251.640,103.780 252.000,104.000 252.000 C 104.220 252.000,104.400 252.540,104.400 253.200 C 104.400 253.860,104.580 254.400,104.800 254.400 C 105.045 254.400,105.200 256.333,105.200 259.400 C 105.200 262.467,105.045 264.400,104.800 264.400 C 104.580 264.400,104.400 264.940,104.400 265.600 C 104.400 266.260,104.220 266.800,104.000 266.800 C 103.780 266.800,103.600 267.160,103.600 267.600 C 103.600 268.040,103.420 268.400,103.200 268.400 C 102.980 268.400,102.800 268.760,102.800 269.200 C 102.800 269.640,102.650 270.000,102.468 270.000 C 102.285 270.000,101.880 270.493,101.568 271.095 C 100.843 272.494,98.026 275.344,96.543 276.179 C 95.914 276.533,94.855 277.152,94.188 277.554 C 92.064 278.836,88.213 280.000,86.097 280.000 C 84.970 280.000,83.936 280.180,83.800 280.400 C 83.643 280.654,78.596 280.800,69.976 280.800 C 61.192 280.800,56.400 280.659,56.400 280.400 C 56.400 280.180,55.854 280.000,55.187 280.000 C 53.053 280.000,51.086 277.601,51.086 275.000 C 51.086 272.399,53.053 270.000,55.187 270.000 C 55.854 270.000,56.400 269.820,56.400 269.600 C 56.400 269.340,61.913 269.200,72.139 269.200 C 85.092 269.200,88.083 269.097,89.039 268.620 C 90.460 267.909,93.200 264.990,93.200 264.186 C 93.200 263.864,93.380 263.600,93.600 263.600 C 93.841 263.600,94.000 261.933,94.000 259.400 C 94.000 256.867,93.841 255.200,93.600 255.200 C 93.380 255.200,93.200 254.936,93.200 254.614 C 93.200 253.810,90.460 250.891,89.039 250.180 C 87.760 249.541,77.600 249.321,77.600 249.932 C 77.600 250.115,77.150 250.506,76.600 250.800 C 76.050 251.094,75.600 251.540,75.600 251.789 C 75.600 253.256,72.887 255.200,70.841 255.200 C 68.214 255.200,66.000 254.024,66.000 252.629 C 66.000 252.283,65.820 252.000,65.600 252.000 C 65.380 252.000,65.200 251.100,65.200 250.000 C 65.200 248.900,65.380 248.000,65.600 248.000 C 65.820 248.000,66.000 247.722,66.000 247.382 C 66.000 247.042,66.405 246.343,66.900 245.829 C 67.395 245.316,68.248 244.334,68.796 243.648 C 69.343 242.961,70.018 242.400,70.296 242.400 C 70.573 242.400,70.800 242.253,70.800 242.074 C 70.800 241.116,76.556 238.818,79.000 238.800 C 79.880 238.793,80.870 238.605,81.200 238.382 C 81.530 238.158,82.430 238.083,83.200 238.214 C 83.970 238.345,85.680 238.545,87.000 238.660 M140.400 263.200 C 140.400 263.426,141.533 263.600,143.000 263.600 C 144.467 263.600,145.600 263.774,145.600 264.000 C 145.600 264.220,146.140 264.400,146.800 264.400 C 147.460 264.400,148.000 264.580,148.000 264.800 C 148.000 265.020,148.360 265.200,148.800 265.200 C 149.240 265.200,149.600 265.380,149.600 265.600 C 149.600 265.820,149.960 266.000,150.400 266.000 C 150.840 266.000,151.200 266.180,151.200 266.400 C 151.200 266.620,151.456 266.800,151.769 266.800 C 153.682 266.800,160.400 275.555,160.400 278.047 C 160.400 278.435,160.580 278.864,160.800 279.000 C 161.033 279.144,161.200 281.396,161.200 284.400 C 161.200 287.404,161.033 289.656,160.800 289.800 C 160.580 289.936,160.400 290.380,160.400 290.787 C 160.400 291.589,158.398 295.716,157.904 295.933 C 157.737 296.007,157.600 296.236,157.600 296.442 C 157.600 297.016,153.289 301.200,152.697 301.200 C 152.411 301.200,151.917 301.560,151.600 302.000 C 151.283 302.440,150.703 302.800,150.312 302.800 C 149.920 302.800,149.600 302.980,149.600 303.200 C 149.600 303.420,149.251 303.600,148.824 303.600 C 148.397 303.600,147.936 303.780,147.800 304.000 C 147.664 304.220,147.124 304.400,146.600 304.400 C 146.076 304.400,145.536 304.580,145.400 304.800 C 145.264 305.020,144.004 305.200,142.600 305.200 C 141.196 305.200,139.936 305.380,139.800 305.600 C 139.637 305.863,123.196 306.000,91.776 306.000 C 60.192 306.000,44.000 305.864,44.000 305.600 C 44.000 305.380,43.460 305.200,42.800 305.200 C 42.140 305.200,41.600 305.020,41.600 304.800 C 41.600 304.580,41.396 304.400,41.147 304.400 C 40.897 304.400,40.267 303.905,39.747 303.300 C 37.385 300.554,39.479 294.800,42.840 294.800 C 43.478 294.800,44.000 294.620,44.000 294.400 C 44.000 294.135,61.067 294.000,94.400 294.000 C 127.733 294.000,144.800 293.865,144.800 293.600 C 144.800 293.380,145.064 293.200,145.386 293.200 C 146.190 293.200,149.109 290.460,149.820 289.039 C 150.500 287.677,150.653 280.000,150.000 280.000 C 149.780 280.000,149.600 279.724,149.600 279.387 C 149.600 278.605,147.271 276.264,145.669 275.436 C 144.729 274.950,143.206 274.800,139.202 274.800 L 133.964 274.800 131.415 277.400 C 125.273 283.664,118.233 277.936,123.279 270.780 C 124.202 269.471,125.075 268.400,125.219 268.400 C 125.363 268.400,126.046 267.860,126.737 267.200 C 127.428 266.540,128.264 266.000,128.596 266.000 C 128.928 266.000,129.200 265.820,129.200 265.600 C 129.200 265.380,129.560 265.200,130.000 265.200 C 130.440 265.200,130.800 265.020,130.800 264.800 C 130.800 264.580,131.250 264.400,131.800 264.400 C 132.350 264.400,132.800 264.220,132.800 264.000 C 132.800 263.778,133.859 263.600,135.176 263.600 C 136.483 263.600,137.664 263.420,137.800 263.200 C 137.936 262.980,138.577 262.800,139.224 262.800 C 139.871 262.800,140.400 262.980,140.400 263.200 M115.400 319.600 C 115.536 319.820,116.807 320.000,118.224 320.000 C 119.675 320.000,120.800 320.175,120.800 320.400 C 120.800 320.620,121.340 320.800,122.000 320.800 C 122.660 320.800,123.200 320.980,123.200 321.200 C 123.200 321.420,123.560 321.600,124.000 321.600 C 124.440 321.600,124.800 321.780,124.800 322.000 C 124.800 322.220,125.160 322.400,125.600 322.400 C 126.040 322.400,126.400 322.568,126.400 322.773 C 126.400 322.978,126.743 323.255,127.162 323.388 C 128.182 323.712,132.056 327.521,132.768 328.900 C 133.080 329.505,133.485 330.000,133.668 330.000 C 133.850 330.000,134.000 330.360,134.000 330.800 C 134.000 331.240,134.180 331.600,134.400 331.600 C 134.620 331.600,134.800 331.960,134.800 332.400 C 134.800 332.840,134.980 333.200,135.200 333.200 C 135.420 333.200,135.600 333.740,135.600 334.400 C 135.600 335.060,135.780 335.600,136.000 335.600 C 136.245 335.600,136.400 337.525,136.400 340.576 C 136.400 343.463,136.232 345.657,136.000 345.800 C 135.780 345.936,135.600 346.487,135.600 347.024 C 135.600 347.561,135.420 348.000,135.200 348.000 C 134.980 348.000,134.800 348.360,134.800 348.800 C 134.800 349.240,134.620 349.600,134.400 349.600 C 134.180 349.600,134.000 349.960,134.000 350.400 C 134.000 350.840,133.820 351.200,133.600 351.200 C 133.380 351.200,133.200 351.449,133.200 351.754 C 133.200 352.388,128.265 357.600,127.664 357.600 C 127.445 357.600,127.207 357.735,127.133 357.900 C 127.060 358.065,126.280 358.535,125.400 358.944 C 124.520 359.354,123.487 359.849,123.105 360.044 C 122.723 360.240,122.084 360.400,121.685 360.400 C 121.286 360.400,120.789 360.565,120.580 360.766 C 119.539 361.770,109.741 361.812,107.400 360.823 C 104.839 359.742,102.000 358.223,102.000 357.935 C 102.000 357.751,101.730 357.600,101.400 357.600 C 101.070 357.600,100.800 357.420,100.800 357.200 C 100.800 356.980,100.542 356.800,100.227 356.800 C 99.912 356.800,99.538 356.434,99.396 355.987 C 99.254 355.540,98.747 354.765,98.269 354.265 C 95.649 351.524,95.992 345.600,98.771 345.600 C 99.007 345.600,99.200 345.420,99.200 345.200 C 99.200 344.978,100.271 344.800,101.613 344.800 C 104.024 344.800,106.800 346.521,106.800 348.015 C 106.800 348.531,107.475 349.198,108.710 349.900 C 109.798 350.519,120.000 350.609,120.000 350.000 C 120.000 349.780,120.252 349.600,120.560 349.600 C 121.311 349.600,123.811 347.061,124.581 345.517 C 126.090 342.493,125.296 336.061,123.103 333.545 C 120.596 330.667,121.998 330.800,94.211 330.800 C 78.000 330.800,69.161 330.660,69.000 330.400 C 68.864 330.180,68.217 330.000,67.563 330.000 C 66.197 330.000,63.600 327.702,63.600 326.493 C 63.600 326.090,63.375 325.522,63.100 325.230 C 62.700 324.806,62.700 324.663,63.100 324.517 C 63.375 324.416,63.600 323.982,63.600 323.553 C 63.600 322.307,66.173 320.000,67.563 320.000 C 68.217 320.000,68.864 319.820,69.000 319.600 C 69.160 319.341,77.330 319.200,92.200 319.200 C 107.070 319.200,115.240 319.341,115.400 319.600 " stroke="none" fill="#04ab5c" fill-rule="evenodd"  data-darkreader-inline-fill="" data-darkreader-inline-stroke=""></path><path id="path1" d="M209.200 6.400 C 209.200 6.620,208.917 6.800,208.571 6.800 C 207.763 6.800,206.800 7.763,206.800 8.571 C 206.800 8.917,206.620 9.200,206.400 9.200 C 205.756 9.200,205.855 190.157,206.500 191.290 C 207.129 192.397,207.603 192.871,208.710 193.500 C 209.843 194.145,390.800 194.244,390.800 193.600 C 390.800 193.380,391.083 193.200,391.429 193.200 C 391.774 193.200,392.314 192.943,392.629 192.629 C 392.943 192.314,393.200 191.774,393.200 191.429 C 393.200 191.083,393.380 190.800,393.600 190.800 C 393.865 190.800,394.000 160.267,394.000 100.000 C 394.000 39.733,393.865 9.200,393.600 9.200 C 393.380 9.200,393.200 8.917,393.200 8.571 C 393.200 7.880,392.631 7.263,391.290 6.500 C 390.157 5.855,209.200 5.756,209.200 6.400 M303.505 39.969 C 304.178 40.612,304.834 41.032,304.964 40.903 C 305.094 40.773,305.200 41.417,305.200 42.333 C 305.200 43.250,305.380 44.000,305.600 44.000 C 305.829 44.000,306.000 45.200,306.000 46.800 C 306.000 48.400,305.829 49.600,305.600 49.600 C 305.380 49.600,305.200 50.236,305.200 51.013 C 305.200 52.100,304.871 52.756,303.773 53.853 C 300.615 57.012,294.800 54.907,294.800 50.605 C 294.800 50.052,294.620 49.600,294.400 49.600 C 294.169 49.600,294.000 48.341,294.000 46.624 C 294.000 44.987,294.180 43.536,294.400 43.400 C 294.620 43.264,294.800 42.821,294.800 42.416 C 294.800 39.269,300.960 37.537,303.505 39.969 M264.025 56.700 C 267.029 59.248,269.200 61.551,269.200 62.189 C 269.200 62.525,269.380 62.800,269.600 62.800 C 270.904 62.800,269.966 66.455,268.211 68.211 C 266.455 69.966,262.800 70.904,262.800 69.600 C 262.800 69.380,262.525 69.200,262.189 69.200 C 261.551 69.200,259.248 67.029,256.700 64.025 C 252.042 58.532,258.532 52.042,264.025 56.700 M343.387 56.613 C 345.478 58.704,345.445 61.496,343.300 64.025 C 340.752 67.029,338.449 69.200,337.811 69.200 C 337.475 69.200,337.200 69.380,337.200 69.600 C 337.200 70.904,333.545 69.966,331.789 68.211 C 330.034 66.455,329.096 62.800,330.400 62.800 C 330.620 62.800,330.800 62.512,330.800 62.159 C 330.800 61.807,332.105 60.290,333.700 58.788 C 335.295 57.287,336.780 55.874,337.000 55.649 C 338.064 54.561,341.915 55.142,343.387 56.613 M308.500 74.298 C 310.425 74.875,312.000 75.494,312.000 75.674 C 312.000 75.853,312.360 76.000,312.800 76.000 C 313.240 76.000,313.600 76.180,313.600 76.400 C 313.600 76.620,313.888 76.800,314.240 76.800 C 314.591 76.800,315.383 77.340,316.000 78.000 C 316.617 78.660,317.364 79.206,317.660 79.212 C 317.957 79.219,318.829 80.074,319.598 81.112 C 320.368 82.151,321.493 83.477,322.098 84.060 C 322.704 84.644,323.200 85.409,323.200 85.760 C 323.200 86.112,323.380 86.400,323.600 86.400 C 323.820 86.400,324.000 86.745,324.000 87.167 C 324.000 87.588,324.155 87.993,324.344 88.067 C 325.483 88.508,326.869 95.058,326.869 100.000 C 326.869 104.942,325.483 111.492,324.344 111.933 C 324.155 112.007,324.000 112.412,324.000 112.833 C 324.000 113.255,323.820 113.600,323.600 113.600 C 323.380 113.600,323.200 113.827,323.200 114.104 C 323.200 115.337,315.352 123.200,314.122 123.200 C 313.835 123.200,313.600 123.380,313.600 123.600 C 313.600 123.820,313.255 124.000,312.833 124.000 C 312.412 124.000,312.007 124.155,311.933 124.344 C 310.718 127.479,289.416 127.449,288.067 124.310 C 287.993 124.140,287.588 124.000,287.167 124.000 C 286.745 124.000,286.400 123.820,286.400 123.600 C 286.400 123.380,286.173 123.200,285.896 123.200 C 285.368 123.200,282.470 120.861,281.035 119.278 C 280.576 118.772,279.435 117.528,278.500 116.515 C 277.565 115.502,276.800 114.431,276.800 114.136 C 276.800 113.841,276.620 113.600,276.400 113.600 C 276.180 113.600,276.000 113.255,276.000 112.833 C 276.000 112.412,275.845 112.007,275.656 111.933 C 274.517 111.492,273.131 104.942,273.131 100.000 C 273.131 95.058,274.517 88.508,275.656 88.067 C 275.845 87.993,276.000 87.588,276.000 87.167 C 276.000 86.745,276.180 86.400,276.400 86.400 C 276.620 86.400,276.800 86.138,276.800 85.818 C 276.800 85.260,279.585 81.976,281.535 80.235 C 282.049 79.776,283.078 78.815,283.822 78.100 C 284.565 77.385,285.449 76.800,285.787 76.800 C 286.124 76.800,286.400 76.620,286.400 76.400 C 286.400 76.180,286.760 76.000,287.200 76.000 C 287.640 76.000,288.000 75.853,288.000 75.674 C 288.000 75.133,294.841 73.214,297.200 73.093 C 301.438 72.875,305.030 73.259,308.500 74.298 M249.600 94.400 C 249.600 94.620,250.052 94.800,250.605 94.800 C 254.856 94.800,256.948 100.678,253.813 103.813 C 252.754 104.872,252.093 105.200,251.013 105.200 C 250.236 105.200,249.600 105.380,249.600 105.600 C 249.600 105.831,248.341 106.000,246.624 106.000 C 244.987 106.000,243.536 105.820,243.400 105.600 C 243.264 105.380,242.593 105.200,241.910 105.200 C 241.226 105.200,240.773 105.094,240.903 104.964 C 241.032 104.834,240.612 104.178,239.969 103.505 C 237.334 100.748,239.296 94.800,242.840 94.800 C 243.478 94.800,244.000 94.620,244.000 94.400 C 244.000 94.171,245.200 94.000,246.800 94.000 C 248.400 94.000,249.600 94.171,249.600 94.400 M356.000 94.400 C 356.000 94.620,356.505 94.800,357.122 94.800 C 360.750 94.800,362.789 100.995,360.014 103.587 C 359.362 104.196,358.942 104.808,359.081 104.947 C 359.220 105.086,358.774 105.200,358.090 105.200 C 357.407 105.200,356.736 105.380,356.600 105.600 C 356.464 105.820,355.013 106.000,353.376 106.000 C 351.659 106.000,350.400 105.831,350.400 105.600 C 350.400 105.380,349.762 105.200,348.982 105.200 C 345.197 105.200,343.322 99.109,346.215 96.215 C 347.015 95.416,348.398 94.800,349.395 94.800 C 349.948 94.800,350.400 94.620,350.400 94.400 C 350.400 94.171,351.600 94.000,353.200 94.000 C 354.800 94.000,356.000 94.171,356.000 94.400 M268.211 131.789 C 269.966 133.545,270.904 137.200,269.600 137.200 C 269.380 137.200,269.200 137.475,269.200 137.811 C 269.200 138.449,267.029 140.752,264.025 143.300 C 258.532 147.958,252.042 141.468,256.700 135.975 C 259.248 132.971,261.551 130.800,262.189 130.800 C 262.525 130.800,262.800 130.620,262.800 130.400 C 262.800 129.096,266.455 130.034,268.211 131.789 M337.200 130.400 C 337.200 130.620,337.475 130.800,337.811 130.800 C 338.449 130.800,340.752 132.971,343.300 135.975 C 347.958 141.468,341.468 147.958,335.975 143.300 C 332.971 140.752,330.800 138.449,330.800 137.811 C 330.800 137.475,330.620 137.200,330.400 137.200 C 329.146 137.200,330.028 133.553,331.700 131.820 C 333.370 130.089,337.200 129.101,337.200 130.400 M302.483 145.300 C 304.331 146.359,305.200 147.536,305.200 148.982 C 305.200 149.762,305.380 150.400,305.600 150.400 C 305.829 150.400,306.000 151.600,306.000 153.200 C 306.000 154.800,305.829 156.000,305.600 156.000 C 305.380 156.000,305.200 156.750,305.200 157.667 C 305.200 158.583,305.086 159.220,304.947 159.081 C 304.808 158.942,304.196 159.362,303.587 160.014 C 300.995 162.789,294.800 160.750,294.800 157.122 C 294.800 156.505,294.620 156.000,294.400 156.000 C 294.171 156.000,294.000 154.800,294.000 153.200 C 294.000 151.600,294.171 150.400,294.400 150.400 C 294.620 150.400,294.800 149.948,294.800 149.395 C 294.800 146.014,299.427 143.548,302.483 145.300 " stroke="none" fill="#fc9c24" fill-rule="evenodd"  data-darkreader-inline-fill="" data-darkreader-inline-stroke=""></path><path id="path2" d="M9.600 6.500 C 9.600 6.665,9.227 6.800,8.771 6.800 C 7.710 6.800,6.800 7.710,6.800 8.771 C 6.800 9.227,6.620 9.600,6.400 9.600 C 5.835 9.600,5.903 10.935,6.500 11.579 C 6.900 12.010,6.900 12.061,6.500 11.835 C 6.225 11.680,6.000 11.743,6.000 11.976 C 6.000 12.209,6.135 12.400,6.300 12.400 C 6.465 12.400,6.555 19.645,6.501 28.500 C 6.128 89.033,6.239 190.800,6.677 190.800 C 6.939 190.800,7.085 191.156,7.002 191.592 C 6.913 192.052,7.048 192.345,7.325 192.292 C 7.586 192.241,7.759 192.414,7.708 192.675 C 7.655 192.952,7.948 193.087,8.408 192.998 C 8.893 192.905,9.200 193.063,9.200 193.407 C 9.200 193.782,9.597 193.940,10.399 193.884 C 11.059 193.838,11.602 193.620,11.605 193.400 C 11.609 193.180,11.787 193.270,12.000 193.600 C 12.213 193.930,12.391 194.020,12.394 193.800 C 12.398 193.535,41.871 193.400,100.000 193.400 C 158.129 193.400,187.602 193.535,187.606 193.800 C 187.609 194.020,187.787 193.930,188.000 193.600 C 188.213 193.270,188.391 193.186,188.394 193.413 C 188.404 194.070,190.401 194.056,191.063 193.394 C 191.394 193.063,191.828 192.894,192.028 193.017 C 192.227 193.141,192.272 192.931,192.126 192.551 C 191.921 192.016,192.016 191.921,192.551 192.126 C 192.931 192.272,193.141 192.227,193.017 192.028 C 192.894 191.828,193.053 191.404,193.371 191.086 C 193.913 190.544,194.161 187.853,193.640 188.176 C 193.508 188.257,193.445 178.036,193.501 165.462 C 193.859 84.292,193.773 9.200,193.323 9.200 C 193.061 9.200,192.915 8.844,192.998 8.408 C 193.087 7.948,192.952 7.655,192.675 7.708 C 192.414 7.759,192.241 7.586,192.292 7.325 C 192.345 7.048,192.052 6.913,191.592 7.002 C 191.156 7.085,190.800 6.939,190.800 6.677 C 190.800 6.309,170.087 6.200,100.200 6.200 C 50.370 6.200,9.600 6.335,9.600 6.500 M72.400 57.335 C 75.250 57.100,76.278 57.105,77.066 57.356 C 77.550 57.511,78.048 57.446,78.194 57.210 C 78.338 56.977,78.665 56.916,78.921 57.075 C 79.177 57.233,79.659 57.411,79.993 57.471 C 82.468 57.914,83.200 58.136,83.200 58.445 C 83.200 58.927,84.526 58.895,85.120 58.400 C 85.469 58.109,85.491 58.131,85.200 58.480 C 84.585 59.218,84.721 59.600,85.600 59.600 C 86.040 59.600,86.400 59.780,86.400 60.000 C 86.400 60.220,86.715 60.406,87.100 60.413 C 87.965 60.428,89.282 61.385,88.927 61.740 C 88.784 61.883,88.967 62.000,89.333 62.000 C 89.700 62.000,90.000 62.174,90.000 62.387 C 90.000 62.601,90.265 62.673,90.588 62.549 C 90.982 62.398,91.400 62.793,91.854 63.745 C 92.227 64.526,92.663 65.085,92.823 64.986 C 92.984 64.887,93.219 65.221,93.347 65.729 C 93.474 66.238,94.033 66.897,94.589 67.194 C 95.145 67.492,95.600 68.037,95.600 68.406 C 95.600 68.776,95.960 69.493,96.400 70.000 C 97.155 70.871,97.362 71.390,97.243 72.112 C 97.215 72.284,97.419 72.696,97.696 73.026 C 97.973 73.357,98.380 73.847,98.600 74.114 C 98.820 74.381,98.982 75.089,98.960 75.687 C 98.938 76.284,99.073 76.679,99.260 76.563 C 99.596 76.355,99.754 77.173,99.627 78.464 C 99.591 78.829,99.943 79.395,100.409 79.721 C 100.875 80.048,101.103 80.379,100.915 80.457 C 100.728 80.536,100.670 81.127,100.787 81.772 C 100.986 82.869,101.043 82.901,101.671 82.272 C 102.041 81.902,102.549 81.600,102.800 81.600 C 103.051 81.600,103.527 81.330,103.857 81.000 C 104.187 80.670,104.341 80.400,104.200 80.400 C 103.768 80.400,105.078 79.236,105.648 79.114 C 106.355 78.963,107.200 78.161,107.200 77.641 C 107.200 77.412,107.488 77.336,107.840 77.471 C 108.193 77.606,108.598 77.555,108.740 77.358 C 109.139 76.808,110.718 76.000,111.395 76.000 C 111.728 76.000,112.000 75.820,112.000 75.600 C 112.000 75.380,112.600 75.200,113.333 75.200 C 114.067 75.200,114.802 75.065,114.967 74.900 C 115.364 74.503,124.000 74.497,124.000 74.893 C 124.000 75.062,124.641 75.200,125.424 75.200 C 126.271 75.200,126.747 75.362,126.600 75.600 C 126.456 75.833,126.863 76.000,127.576 76.000 C 128.249 76.000,128.801 76.135,128.803 76.300 C 128.809 76.824,130.769 77.533,131.606 77.314 C 132.251 77.146,132.357 77.246,132.138 77.817 C 131.950 78.307,132.011 78.440,132.332 78.242 C 132.613 78.068,132.800 78.202,132.800 78.576 C 132.800 78.919,132.991 79.200,133.224 79.200 C 133.457 79.200,133.536 79.381,133.399 79.601 C 133.251 79.841,133.523 79.933,134.076 79.831 C 134.584 79.737,135.090 79.643,135.200 79.624 C 135.310 79.604,135.130 79.397,134.800 79.163 C 134.329 78.830,134.322 78.772,134.766 78.892 C 135.077 78.975,135.352 79.495,135.376 80.045 C 135.401 80.628,136.046 81.673,136.919 82.546 C 137.781 83.408,138.303 84.249,138.145 84.523 C 137.995 84.785,138.006 84.880,138.170 84.733 C 138.552 84.390,140.026 85.634,139.756 86.071 C 139.644 86.252,139.754 86.400,140.000 86.400 C 140.246 86.400,140.345 86.565,140.220 86.768 C 140.095 86.970,140.264 87.407,140.596 87.739 C 140.928 88.071,141.200 88.557,141.200 88.818 C 141.200 89.096,141.531 89.207,142.000 89.084 C 142.439 88.969,142.917 89.066,143.061 89.299 C 143.216 89.550,143.133 89.606,142.859 89.436 C 142.300 89.091,141.715 90.365,142.261 90.740 C 142.469 90.883,142.667 91.447,142.701 91.994 C 142.736 92.541,142.952 93.051,143.182 93.127 C 143.412 93.204,143.602 93.747,143.605 94.333 C 143.613 95.892,144.038 97.224,144.445 96.972 C 144.640 96.851,144.800 96.933,144.800 97.153 C 144.800 97.373,144.650 97.645,144.467 97.759 C 143.739 98.208,144.336 101.619,145.279 102.406 C 146.094 103.085,146.115 103.175,145.467 103.187 C 145.063 103.194,144.803 103.410,144.889 103.667 C 145.074 104.222,148.084 104.367,148.463 103.839 C 148.838 103.317,151.653 103.252,152.600 103.744 C 153.570 104.248,155.290 104.089,155.694 103.459 C 155.885 103.161,155.990 103.235,155.994 103.673 C 156.001 104.413,158.138 106.129,158.545 105.722 C 158.685 105.581,158.800 105.677,158.800 105.933 C 158.800 106.190,159.070 106.400,159.400 106.400 C 159.730 106.400,160.000 106.550,160.000 106.732 C 160.000 106.915,160.444 107.302,160.986 107.593 C 161.529 107.883,161.878 108.273,161.763 108.460 C 161.647 108.647,161.844 108.800,162.200 108.800 C 162.556 108.800,162.736 108.980,162.600 109.200 C 162.464 109.420,162.621 109.600,162.949 109.600 C 163.278 109.600,163.660 109.959,163.799 110.398 C 163.938 110.836,164.266 111.428,164.526 111.713 C 165.286 112.543,166.000 113.940,166.000 114.595 C 166.000 114.928,166.160 115.200,166.357 115.200 C 166.553 115.200,166.828 115.657,166.968 116.216 C 167.109 116.775,167.353 117.152,167.512 117.053 C 167.670 116.955,167.739 117.937,167.664 119.237 C 167.540 121.401,167.607 121.631,168.464 121.974 C 168.979 122.181,169.175 122.361,168.900 122.375 C 168.625 122.389,168.400 122.835,168.400 123.367 C 168.400 123.898,168.625 124.424,168.900 124.535 C 169.219 124.664,169.164 124.748,168.750 124.768 C 168.100 124.800,167.600 126.314,167.600 128.250 C 167.600 128.773,167.420 129.200,167.200 129.200 C 166.980 129.200,166.800 129.620,166.800 130.133 C 166.800 130.647,166.665 131.202,166.500 131.367 C 166.069 131.798,166.107 132.554,166.576 132.879 C 166.798 133.032,167.132 132.942,167.320 132.679 C 167.565 132.334,167.618 132.360,167.508 132.769 C 167.423 133.081,166.978 133.365,166.518 133.399 C 165.226 133.494,164.435 134.414,164.368 135.900 C 164.350 136.312,164.254 136.396,164.136 136.104 C 163.873 135.451,162.800 136.468,162.800 137.371 C 162.800 137.717,162.606 138.000,162.369 138.000 C 162.131 138.000,161.270 138.675,160.454 139.500 C 158.630 141.343,157.514 142.000,156.205 142.000 C 155.652 142.000,155.200 142.195,155.200 142.433 C 155.200 142.672,154.975 142.786,154.700 142.687 C 154.425 142.589,153.863 142.682,153.452 142.894 C 152.899 143.179,152.781 143.154,153.000 142.800 C 153.205 142.469,153.002 142.488,152.348 142.860 C 151.365 143.420,50.682 144.114,51.026 143.558 C 51.340 143.050,49.313 142.447,48.849 142.911 C 48.525 143.235,48.400 143.237,48.400 142.917 C 48.400 142.674,48.060 142.564,47.645 142.672 C 47.230 142.781,46.769 142.674,46.622 142.435 C 46.474 142.196,46.003 142.000,45.576 142.000 C 45.149 142.000,44.800 141.820,44.800 141.600 C 44.800 141.380,44.440 141.200,44.000 141.200 C 43.560 141.200,43.200 141.020,43.200 140.800 C 43.200 140.580,42.958 140.400,42.662 140.400 C 41.963 140.400,36.769 135.364,37.114 135.020 C 37.258 134.876,37.088 134.868,36.737 135.003 C 36.252 135.189,36.036 134.918,35.842 133.881 C 35.612 132.655,35.472 132.533,34.493 132.703 C 33.424 132.888,33.417 132.878,34.200 132.221 C 34.766 131.746,34.854 131.489,34.500 131.342 C 34.225 131.227,34.000 130.682,34.000 130.131 C 34.000 129.579,33.595 128.771,33.100 128.334 C 32.605 127.897,32.425 127.653,32.700 127.793 C 32.995 127.943,33.200 127.791,33.200 127.424 C 33.200 127.081,32.973 126.800,32.695 126.800 C 32.001 126.800,32.102 114.831,32.799 114.401 C 33.057 114.241,33.231 113.991,33.186 113.846 C 33.141 113.700,33.211 113.044,33.342 112.388 C 33.473 111.733,33.579 111.101,33.576 110.984 C 33.574 110.867,33.848 110.495,34.186 110.157 C 34.524 109.819,34.800 109.275,34.800 108.948 C 34.800 108.621,34.950 108.445,35.133 108.559 C 35.317 108.672,35.467 108.503,35.467 108.182 C 35.467 107.862,35.272 107.597,35.033 107.594 C 34.795 107.591,35.050 107.361,35.600 107.084 C 36.150 106.807,36.659 106.166,36.732 105.659 C 36.823 105.022,37.052 104.811,37.476 104.974 C 37.919 105.144,38.020 105.029,37.840 104.560 C 37.661 104.094,37.762 103.976,38.195 104.143 C 38.566 104.285,38.800 104.147,38.800 103.787 C 38.800 103.464,38.935 103.198,39.100 103.195 C 39.265 103.192,40.177 102.469,41.126 101.587 C 42.075 100.706,43.032 100.096,43.252 100.232 C 43.473 100.369,43.906 100.147,44.214 99.740 C 44.522 99.333,44.780 99.157,44.787 99.349 C 44.794 99.541,45.073 99.471,45.407 99.194 C 45.741 98.917,46.416 98.666,46.907 98.638 C 47.514 98.602,47.780 98.349,47.737 97.850 C 47.692 97.312,47.794 97.234,48.117 97.557 C 48.624 98.064,50.761 98.140,51.490 97.677 C 52.051 97.320,51.947 94.477,51.357 94.067 C 51.146 93.920,50.990 93.530,51.011 93.200 C 51.032 92.870,50.889 92.385,50.693 92.121 C 50.497 91.858,50.340 89.522,50.343 86.931 C 50.347 83.887,50.181 82.012,49.874 81.633 C 49.600 81.294,49.582 81.156,49.832 81.305 C 50.095 81.462,50.233 81.220,50.185 80.681 C 50.142 80.197,50.375 79.491,50.703 79.113 C 51.032 78.735,51.204 78.060,51.088 77.613 C 50.971 77.166,51.008 76.800,51.171 76.800 C 51.334 76.800,51.470 76.575,51.474 76.300 C 51.479 76.025,51.959 74.821,52.541 73.625 C 53.124 72.429,53.600 71.203,53.600 70.902 C 53.600 70.576,53.803 70.470,54.100 70.641 C 54.375 70.799,54.477 70.792,54.328 70.625 C 53.551 69.760,60.743 61.200,62.246 61.200 C 62.551 61.200,62.800 61.020,62.800 60.800 C 62.800 60.580,63.160 60.400,63.600 60.400 C 64.040 60.400,64.400 60.220,64.400 60.000 C 64.400 59.780,64.760 59.600,65.200 59.600 C 65.640 59.600,66.000 59.420,66.000 59.200 C 66.000 58.980,66.341 58.800,66.757 58.800 C 67.174 58.800,67.623 58.518,67.755 58.172 C 67.921 57.740,68.261 57.629,68.848 57.815 C 69.480 58.016,69.619 57.954,69.384 57.575 C 69.160 57.212,69.261 57.138,69.734 57.319 C 70.105 57.462,70.400 57.381,70.400 57.138 C 70.400 56.865,70.587 56.836,70.900 57.060 C 71.175 57.256,71.850 57.380,72.400 57.335 M162.800 139.400 C 162.283 139.950,161.702 140.400,161.508 140.400 C 161.175 140.400,163.209 138.440,163.570 138.413 C 163.663 138.406,163.317 138.850,162.800 139.400 M209.600 206.500 C 209.600 206.665,209.227 206.800,208.771 206.800 C 208.316 206.800,207.686 207.057,207.371 207.371 C 207.057 207.686,206.800 208.316,206.800 208.771 C 206.800 209.227,206.620 209.600,206.400 209.600 C 205.835 209.600,205.903 210.935,206.500 211.579 C 206.900 212.010,206.900 212.061,206.500 211.835 C 206.225 211.680,206.000 211.743,206.000 211.976 C 206.000 212.209,206.135 212.400,206.300 212.400 C 206.465 212.400,206.555 219.645,206.501 228.500 C 206.128 289.033,206.239 390.800,206.677 390.800 C 206.939 390.800,207.085 391.156,207.002 391.592 C 206.913 392.052,207.048 392.345,207.325 392.292 C 207.586 392.241,207.759 392.414,207.708 392.675 C 207.655 392.952,207.948 393.087,208.408 392.998 C 208.893 392.905,209.200 393.063,209.200 393.407 C 209.200 393.782,209.597 393.940,210.399 393.884 C 211.059 393.838,211.602 393.620,211.605 393.400 C 211.609 393.180,211.787 393.270,212.000 393.600 C 212.213 393.930,212.391 394.020,212.394 393.800 C 212.398 393.535,241.871 393.400,300.000 393.400 C 358.129 393.400,387.602 393.535,387.606 393.800 C 387.609 394.020,387.787 393.930,388.000 393.600 C 388.258 393.200,388.390 393.167,388.394 393.500 C 388.402 394.200,390.332 394.125,391.061 393.396 C 391.393 393.064,391.828 392.894,392.028 393.017 C 392.227 393.141,392.272 392.931,392.126 392.551 C 391.921 392.016,392.016 391.921,392.551 392.126 C 392.931 392.272,393.141 392.227,393.017 392.028 C 392.894 391.828,393.064 391.393,393.396 391.061 C 394.128 390.329,394.190 389.202,393.500 389.194 C 393.138 389.189,393.152 389.091,393.551 388.839 C 393.854 388.647,393.988 388.304,393.848 388.077 C 393.597 387.671,393.564 215.383,393.814 211.300 C 393.911 209.725,393.806 209.200,393.394 209.200 C 393.063 209.200,392.906 208.886,392.998 208.408 C 393.087 207.948,392.952 207.655,392.675 207.708 C 392.414 207.759,392.241 207.586,392.292 207.325 C 392.345 207.048,392.052 206.913,391.592 207.002 C 391.156 207.085,390.800 206.939,390.800 206.677 C 390.800 206.309,370.087 206.200,300.200 206.200 C 250.370 206.200,209.600 206.335,209.600 206.500 M326.069 237.357 C 326.309 237.209,326.426 237.569,326.360 238.255 C 326.300 238.885,326.547 239.962,326.909 240.649 C 327.272 241.336,327.455 242.011,327.317 242.149 C 327.179 242.287,327.298 242.400,327.580 242.400 C 327.893 242.400,328.013 242.706,327.888 243.186 C 327.775 243.619,327.867 243.934,328.092 243.886 C 328.318 243.839,328.581 244.337,328.677 244.993 C 328.773 245.648,329.065 246.321,329.326 246.486 C 329.587 246.652,329.643 246.791,329.451 246.794 C 329.259 246.797,329.347 247.095,329.646 247.456 C 329.945 247.816,330.134 248.537,330.066 249.057 C 329.990 249.636,330.187 250.097,330.573 250.245 C 330.926 250.380,331.314 251.174,331.453 252.044 C 331.590 252.900,331.829 253.600,331.984 253.600 C 332.140 253.600,332.297 253.870,332.333 254.200 C 332.370 254.530,332.430 255.070,332.467 255.400 C 332.503 255.730,332.671 256.000,332.839 256.000 C 333.007 256.000,333.202 256.405,333.272 256.900 C 333.363 257.541,333.659 257.791,334.300 257.768 C 335.148 257.738,335.162 257.780,334.538 258.468 C 333.898 259.176,334.145 259.430,335.300 259.247 C 335.677 259.188,335.692 259.775,335.323 260.144 C 334.866 260.601,334.775 262.000,335.203 262.000 C 335.421 262.000,335.606 262.405,335.613 262.900 C 335.620 263.395,335.884 264.142,336.200 264.559 C 336.516 264.976,336.680 265.471,336.564 265.659 C 336.448 265.847,336.768 266.003,337.276 266.006 C 337.807 266.010,338.011 266.137,337.757 266.306 C 337.207 266.670,337.333 267.582,338.162 269.244 C 338.513 269.947,338.800 270.855,338.800 271.261 C 338.800 271.668,338.980 272.000,339.200 272.000 C 339.420 272.000,339.600 272.379,339.600 272.843 C 339.600 273.419,339.785 273.614,340.187 273.460 C 340.510 273.336,340.898 273.435,341.049 273.679 C 341.215 273.948,341.141 274.011,340.862 273.838 C 340.551 273.646,340.400 273.953,340.400 274.776 C 340.400 275.449,340.580 276.000,340.800 276.000 C 341.020 276.000,341.200 276.360,341.200 276.800 C 341.200 277.240,341.380 277.600,341.600 277.600 C 341.820 277.600,342.000 278.129,342.000 278.776 C 342.000 279.423,342.145 280.043,342.323 280.152 C 343.039 280.595,343.019 289.116,342.300 289.834 C 342.135 289.999,342.000 290.553,342.000 291.067 C 342.000 291.580,341.820 292.000,341.600 292.000 C 341.380 292.000,341.200 292.371,341.200 292.824 C 341.200 293.277,341.020 293.536,340.800 293.400 C 340.580 293.264,340.400 293.536,340.400 294.005 C 340.400 294.924,339.453 296.120,339.048 295.714 C 338.911 295.578,338.800 295.663,338.800 295.903 C 338.800 296.484,336.464 298.798,335.869 298.806 C 335.597 298.810,335.652 298.975,336.000 299.200 C 336.586 299.579,335.759 299.838,334.637 299.626 C 334.437 299.589,334.167 299.702,334.037 299.879 C 333.555 300.533,331.301 301.569,330.969 301.289 C 330.781 301.130,330.850 301.294,331.124 301.654 C 331.570 302.240,331.435 302.296,329.841 302.188 C 328.707 302.112,327.991 302.246,327.871 302.558 C 327.639 303.163,322.517 302.995,321.749 302.357 C 321.466 302.123,321.062 302.038,320.850 302.169 C 320.638 302.300,320.193 302.136,319.861 301.804 C 319.529 301.472,318.784 301.200,318.205 301.200 C 317.605 301.200,317.259 301.028,317.400 300.800 C 317.536 300.580,317.299 300.400,316.873 300.400 C 316.447 300.400,315.874 300.130,315.600 299.800 C 315.326 299.470,314.854 299.200,314.551 299.200 C 314.248 299.200,314.000 298.930,314.000 298.600 C 314.000 298.270,313.807 298.000,313.571 298.000 C 313.023 298.000,312.230 297.198,311.890 296.300 C 311.744 295.915,311.429 295.600,311.189 295.600 C 310.949 295.600,310.844 295.453,310.955 295.273 C 311.066 295.093,310.807 294.693,310.379 294.385 C 309.950 294.076,309.600 293.593,309.600 293.312 C 309.600 293.030,309.420 292.800,309.200 292.800 C 308.980 292.800,308.800 292.249,308.800 291.576 C 308.800 290.863,308.633 290.456,308.400 290.600 C 308.168 290.743,308.000 290.359,308.000 289.687 C 308.000 289.049,307.746 287.684,307.436 286.653 C 306.762 284.413,306.757 284.334,307.268 283.718 C 307.489 283.452,307.553 283.047,307.411 282.818 C 307.269 282.588,307.368 282.400,307.631 282.400 C 307.968 282.400,308.035 281.864,307.859 280.579 C 307.714 279.521,307.762 278.853,307.973 278.984 C 308.650 279.402,309.667 276.765,309.099 276.063 C 308.784 275.674,308.769 275.548,309.058 275.721 C 309.497 275.984,309.987 275.271,310.239 274.007 C 310.303 273.681,310.546 273.351,310.778 273.274 C 311.010 273.197,311.200 272.688,311.200 272.143 C 311.200 271.598,311.342 271.240,311.515 271.348 C 311.688 271.455,311.869 271.070,311.917 270.494 C 311.965 269.917,312.180 269.336,312.395 269.203 C 312.609 269.071,312.710 268.569,312.617 268.089 C 312.515 267.559,312.636 267.252,312.925 267.308 C 313.190 267.359,313.400 266.957,313.400 266.400 C 313.400 265.850,313.652 265.202,313.961 264.961 C 314.270 264.719,314.394 264.314,314.238 264.061 C 314.081 263.807,314.136 263.600,314.361 263.600 C 314.706 263.600,315.639 261.120,315.790 259.800 C 315.816 259.580,316.039 259.440,316.288 259.490 C 316.568 259.546,316.682 259.127,316.589 258.390 C 316.478 257.514,316.603 257.200,317.062 257.200 C 317.459 257.200,317.600 256.976,317.450 256.585 C 317.313 256.229,317.474 255.870,317.830 255.733 C 318.169 255.603,318.346 255.237,318.224 254.919 C 318.103 254.602,318.219 253.950,318.482 253.471 C 318.746 252.992,319.003 252.348,319.054 252.040 C 319.105 251.732,319.384 251.333,319.673 251.152 C 320.107 250.882,320.102 250.663,319.647 249.912 C 319.344 249.410,319.237 249.133,319.411 249.297 C 319.846 249.706,320.800 248.846,320.800 248.045 C 320.800 247.684,321.169 246.700,321.620 245.859 C 322.459 244.293,322.120 242.860,321.055 243.469 C 320.805 243.611,320.745 243.570,320.921 243.376 C 321.098 243.182,321.638 243.019,322.121 243.012 C 322.605 243.005,322.959 242.788,322.909 242.528 C 322.859 242.268,323.075 241.561,323.389 240.957 C 323.702 240.352,323.868 239.709,323.756 239.529 C 323.644 239.348,323.722 239.200,323.928 239.200 C 324.134 239.200,324.539 238.629,324.829 237.931 C 325.118 237.233,325.425 236.874,325.511 237.134 C 325.598 237.393,325.849 237.494,326.069 237.357 M282.722 272.665 C 283.088 273.031,283.333 273.751,283.265 274.265 C 283.184 274.886,283.354 275.217,283.771 275.250 C 284.918 275.341,285.131 275.398,285.421 275.687 C 285.579 275.846,285.324 275.901,284.854 275.810 C 283.912 275.629,283.671 276.299,284.556 276.638 C 284.862 276.756,285.026 277.179,284.921 277.581 C 284.816 277.982,284.926 278.431,285.165 278.578 C 285.404 278.726,285.600 279.202,285.600 279.636 C 285.600 280.070,285.850 280.521,286.156 280.638 C 286.473 280.760,286.626 281.178,286.513 281.612 C 286.404 282.029,286.605 282.662,286.961 283.018 C 287.316 283.374,287.513 283.818,287.397 284.005 C 287.282 284.192,287.370 284.458,287.593 284.596 C 287.817 284.734,288.000 285.276,288.000 285.800 C 288.000 286.324,288.180 286.864,288.400 287.000 C 288.620 287.136,288.800 287.597,288.800 288.024 C 288.800 288.451,288.980 288.800,289.200 288.800 C 289.420 288.800,289.600 289.149,289.600 289.576 C 289.600 290.003,289.780 290.464,290.000 290.600 C 290.220 290.736,290.400 291.377,290.400 292.024 C 290.400 292.671,290.535 293.201,290.700 293.203 C 291.106 293.207,292.000 295.186,292.000 296.080 C 292.000 296.476,292.191 296.800,292.425 296.800 C 292.659 296.800,292.794 297.205,292.725 297.700 C 292.637 298.331,292.780 298.560,293.200 298.467 C 293.530 298.393,293.679 298.455,293.531 298.603 C 293.382 298.751,293.509 299.576,293.813 300.436 C 294.116 301.296,294.237 302.003,294.082 302.006 C 293.927 302.009,294.034 302.160,294.319 302.341 C 294.604 302.523,294.886 303.195,294.945 303.835 C 295.004 304.476,295.259 304.957,295.512 304.905 C 295.764 304.852,295.877 305.054,295.763 305.353 C 295.648 305.652,295.853 306.012,296.219 306.152 C 296.612 306.303,296.787 306.656,296.648 307.019 C 296.416 307.624,296.490 307.849,297.706 310.200 C 298.048 310.860,298.333 311.580,298.340 311.800 C 298.347 312.020,298.768 312.298,299.276 312.418 C 300.072 312.606,300.103 312.674,299.500 312.906 C 298.430 313.317,299.300 316.800,300.472 316.800 C 300.700 316.800,300.782 317.070,300.655 317.400 C 300.363 318.162,300.770 319.266,301.237 318.977 C 301.432 318.857,301.489 319.023,301.365 319.347 C 301.241 319.671,301.424 320.369,301.771 320.900 C 302.118 321.430,302.286 321.980,302.144 322.123 C 302.002 322.265,302.161 322.487,302.499 322.616 C 302.871 322.760,303.032 323.155,302.909 323.626 C 302.798 324.052,302.908 324.400,303.153 324.400 C 303.399 324.400,303.600 324.858,303.600 325.417 C 303.600 325.976,303.960 326.820,304.400 327.292 C 304.872 327.799,305.200 328.704,305.200 329.499 C 305.200 330.296,305.364 330.746,305.600 330.600 C 305.840 330.452,306.002 330.964,306.006 331.876 C 306.011 333.007,306.112 333.245,306.400 332.800 C 306.835 332.127,306.940 332.702,306.813 335.060 C 306.776 335.752,306.938 336.438,307.173 336.583 C 307.408 336.728,307.600 337.366,307.600 338.000 C 307.600 338.634,307.799 339.276,308.043 339.426 C 308.352 339.617,308.322 339.801,307.946 340.033 C 307.537 340.286,307.519 340.479,307.870 340.830 C 308.222 341.182,308.148 341.624,307.567 342.659 C 307.145 343.410,306.800 344.559,306.800 345.212 C 306.800 345.865,306.599 346.400,306.353 346.400 C 306.089 346.400,306.001 346.762,306.138 347.285 C 306.278 347.822,306.114 348.453,305.721 348.888 C 305.364 349.282,305.188 349.721,305.330 349.863 C 305.471 350.005,305.298 350.333,304.943 350.592 C 304.395 350.993,304.375 351.207,304.815 352.032 C 305.274 352.893,305.262 352.943,304.710 352.488 C 304.179 352.050,303.926 352.234,302.960 353.760 C 302.340 354.741,301.690 355.455,301.516 355.348 C 301.232 355.172,301.041 355.751,301.145 356.476 C 301.166 356.627,300.827 356.864,300.392 357.003 C 299.956 357.141,299.600 357.542,299.600 357.894 C 299.600 358.245,299.489 358.422,299.352 358.286 C 299.216 358.150,298.878 358.255,298.601 358.519 C 298.325 358.784,297.726 359.258,297.270 359.573 C 296.815 359.888,296.534 360.293,296.645 360.473 C 296.756 360.653,296.482 360.800,296.036 360.800 C 295.548 360.800,295.302 361.001,295.419 361.304 C 295.547 361.638,295.188 361.825,294.357 361.859 C 293.667 361.887,292.968 362.128,292.804 362.394 C 292.639 362.660,292.033 362.906,291.457 362.939 C 290.881 362.973,290.332 363.203,290.236 363.451 C 290.140 363.700,289.603 363.813,289.032 363.704 C 288.330 363.570,288.000 363.682,288.000 364.053 C 288.000 364.491,286.864 364.595,282.300 364.575 C 279.165 364.562,276.389 364.707,276.131 364.898 C 275.799 365.145,275.726 365.004,275.881 364.413 C 276.065 363.709,275.920 363.582,274.949 363.595 C 273.083 363.620,272.422 363.488,272.641 363.133 C 272.755 362.950,272.556 362.800,272.200 362.800 C 271.821 362.800,271.668 362.613,271.832 362.348 C 272.001 362.074,271.894 361.969,271.559 362.080 C 271.256 362.181,270.757 362.014,270.452 361.709 C 270.147 361.404,269.641 361.252,269.328 361.372 C 269.012 361.493,268.867 361.414,269.003 361.195 C 269.137 360.978,268.976 360.800,268.643 360.800 C 268.311 360.800,267.856 360.485,267.632 360.100 C 267.408 359.715,267.219 359.556,267.212 359.747 C 267.205 359.938,265.927 358.816,264.372 357.255 C 262.651 355.527,261.657 354.231,261.834 353.946 C 262.004 353.670,261.951 353.583,261.706 353.735 C 261.476 353.877,260.990 353.365,260.625 352.596 C 259.980 351.237,259.200 350.728,259.200 351.667 C 259.200 351.923,259.084 352.018,258.943 351.876 C 258.802 351.735,258.937 351.316,259.243 350.945 C 259.676 350.421,259.688 350.232,259.300 350.102 C 259.025 350.009,258.800 349.599,258.800 349.190 C 258.800 348.782,258.620 348.336,258.400 348.200 C 258.180 348.064,258.000 347.513,258.000 346.976 C 258.000 346.439,257.851 346.000,257.668 346.000 C 257.486 346.000,257.338 343.300,257.340 340.000 C 257.341 336.700,257.490 334.000,257.671 334.000 C 257.852 334.000,258.000 333.460,258.000 332.800 C 258.000 332.140,258.180 331.600,258.400 331.600 C 258.620 331.600,258.800 331.071,258.800 330.424 C 258.800 329.777,258.980 329.136,259.200 329.000 C 259.420 328.864,259.600 328.403,259.600 327.976 C 259.600 327.549,259.780 327.200,260.000 327.200 C 260.220 327.200,260.400 326.750,260.400 326.200 C 260.400 325.650,260.580 325.200,260.800 325.200 C 261.020 325.200,261.200 324.851,261.200 324.424 C 261.200 323.997,261.397 323.525,261.638 323.377 C 261.878 323.228,261.996 322.694,261.900 322.190 C 261.794 321.633,261.897 321.339,262.162 321.441 C 262.403 321.533,262.627 321.133,262.661 320.552 C 262.694 319.971,262.882 319.384,263.078 319.248 C 263.273 319.111,263.683 318.190,263.989 317.200 C 264.294 316.210,264.714 315.175,264.921 314.900 C 265.128 314.625,265.158 314.400,264.987 314.400 C 264.816 314.400,264.996 314.046,265.388 313.613 C 265.803 313.154,266.012 312.487,265.888 312.013 C 265.771 311.566,265.830 311.200,266.019 311.200 C 266.208 311.200,266.659 310.525,267.022 309.700 C 267.385 308.875,267.855 307.830,268.067 307.378 C 268.279 306.926,268.395 306.296,268.326 305.978 C 268.257 305.660,268.425 305.445,268.700 305.500 C 268.992 305.558,269.200 305.189,269.200 304.610 C 269.200 304.065,269.551 303.043,269.979 302.338 C 270.408 301.633,270.662 300.901,270.545 300.711 C 270.427 300.521,270.544 300.109,270.803 299.796 C 271.063 299.483,271.199 298.997,271.106 298.717 C 271.012 298.437,271.186 297.957,271.491 297.652 C 271.796 297.347,271.948 296.841,271.828 296.528 C 271.707 296.212,271.786 296.067,272.005 296.203 C 272.222 296.337,272.400 296.167,272.400 295.824 C 272.400 295.481,272.574 295.200,272.787 295.200 C 273.001 295.200,273.080 294.953,272.964 294.652 C 272.849 294.350,273.036 293.821,273.380 293.477 C 273.833 293.024,273.878 292.772,273.542 292.564 C 273.217 292.363,273.291 292.123,273.789 291.758 C 274.180 291.473,274.500 290.780,274.500 290.219 C 274.500 289.659,274.657 289.200,274.850 289.200 C 275.043 289.200,275.200 288.928,275.200 288.595 C 275.200 288.262,275.380 287.632,275.600 287.195 C 275.820 286.758,276.180 286.042,276.400 285.605 C 276.620 285.168,276.800 284.528,276.800 284.182 C 276.800 283.836,276.980 283.664,277.200 283.800 C 277.433 283.944,277.600 283.537,277.600 282.824 C 277.600 282.151,277.780 281.600,278.000 281.600 C 278.220 281.600,278.400 281.240,278.400 280.800 C 278.400 280.360,278.580 280.000,278.800 280.000 C 279.020 280.000,279.200 279.460,279.200 278.800 C 279.200 278.140,279.380 277.600,279.600 277.600 C 279.820 277.600,280.000 277.060,280.000 276.400 C 280.000 275.740,280.201 275.200,280.447 275.200 C 280.702 275.200,280.800 274.844,280.676 274.370 C 280.550 273.888,280.740 273.232,281.130 272.804 C 281.977 271.872,281.933 271.876,282.722 272.665 " stroke="none" fill="#3c5484" fill-rule="evenodd"  data-darkreader-inline-fill="" data-darkreader-inline-stroke=""></path><path id="path3" d="M56.300 6.300 C 80.335 6.357,119.665 6.357,143.700 6.300 C 167.735 6.243,148.070 6.196,100.000 6.196 C 51.930 6.196,32.265 6.243,56.300 6.300 M6.098 99.900 C 6.151 148.025,6.241 173.180,6.297 155.800 C 6.570 71.533,6.571 12.400,6.300 12.400 C 6.135 12.400,6.044 51.775,6.098 99.900 M193.668 99.800 C 193.597 147.760,193.475 187.339,193.397 187.752 C 193.309 188.218,193.398 188.362,193.629 188.131 C 193.858 187.902,193.963 153.982,193.900 100.179 L 193.798 12.600 193.668 99.800 M131.200 77.576 C 131.200 78.247,131.909 78.413,132.146 77.798 C 132.285 77.435,132.144 77.200,131.787 77.200 C 131.464 77.200,131.200 77.369,131.200 77.576 M134.800 79.200 C 135.361 79.563,135.066 79.783,134.232 79.625 C 134.030 79.586,134.112 79.852,134.413 80.216 C 134.921 80.827,134.983 80.821,135.231 80.139 C 135.545 79.276,135.346 78.798,134.676 78.806 C 134.390 78.810,134.439 78.967,134.800 79.200 M99.600 79.609 C 99.600 79.838,99.878 80.132,100.217 80.262 C 101.155 80.622,101.266 80.233,100.382 79.681 C 99.887 79.372,99.600 79.346,99.600 79.609 M100.447 81.900 C 100.392 83.428,101.482 83.721,102.307 82.400 C 102.916 81.425,102.585 81.358,101.671 82.272 C 101.043 82.901,100.984 82.869,100.747 81.772 L 100.495 80.600 100.447 81.900 M144.800 102.600 C 144.800 102.930,145.092 103.200,145.449 103.200 C 145.980 103.200,146.008 103.091,145.600 102.600 C 145.326 102.270,145.034 102.000,144.951 102.000 C 144.868 102.000,144.800 102.270,144.800 102.600 M155.606 103.500 C 155.603 103.775,155.105 104.025,154.500 104.054 C 153.420 104.108,153.418 104.112,154.400 104.293 C 154.950 104.394,155.629 104.665,155.910 104.895 C 156.650 105.504,156.742 105.145,156.139 104.000 C 155.849 103.450,155.609 103.225,155.606 103.500 M162.800 109.829 C 162.800 109.954,163.070 110.327,163.400 110.657 C 164.051 111.308,164.133 111.211,163.757 110.233 C 163.529 109.638,162.800 109.330,162.800 109.829 M167.750 124.987 C 167.626 125.310,167.617 125.805,167.731 126.087 C 167.844 126.369,167.951 126.208,167.968 125.729 C 167.986 125.250,168.315 124.776,168.700 124.676 C 169.356 124.504,169.355 124.490,168.687 124.446 C 168.296 124.421,167.874 124.664,167.750 124.987 M167.200 132.763 C 167.200 132.962,166.860 133.036,166.445 132.928 C 166.030 132.819,165.577 132.914,165.438 133.139 C 165.284 133.387,165.612 133.502,166.274 133.431 C 167.165 133.336,168.218 132.400,167.433 132.400 C 167.305 132.400,167.200 132.563,167.200 132.763 M35.897 134.173 C 35.999 134.708,36.379 135.259,36.741 135.397 C 37.269 135.598,37.301 135.547,36.900 135.144 C 36.625 134.867,36.400 134.316,36.400 133.920 C 36.400 133.524,36.245 133.200,36.055 133.200 C 35.866 133.200,35.795 133.638,35.897 134.173 M162.278 139.413 C 161.660 139.956,161.314 140.400,161.508 140.400 C 161.702 140.400,162.283 139.950,162.800 139.400 C 163.995 138.128,163.731 138.134,162.278 139.413 M101.418 143.100 C 73.929 143.157,51.303 143.337,51.138 143.502 C 50.974 143.666,73.496 143.710,101.187 143.600 C 128.877 143.490,151.668 143.265,151.833 143.100 C 151.998 142.935,151.968 142.844,151.767 142.898 C 151.565 142.953,128.908 143.043,101.418 143.100 M12.400 193.700 C 12.400 193.865,51.820 194.000,100.000 194.000 C 148.180 194.000,187.600 193.865,187.600 193.700 C 187.600 193.535,148.180 193.400,100.000 193.400 C 51.820 193.400,12.400 193.535,12.400 193.700 M256.300 206.300 C 280.335 206.357,319.665 206.357,343.700 206.300 C 367.735 206.243,348.070 206.196,300.000 206.196 C 251.930 206.196,232.265 206.243,256.300 206.300 M206.098 299.900 C 206.151 348.025,206.241 373.180,206.297 355.800 C 206.570 271.533,206.571 212.400,206.300 212.400 C 206.135 212.400,206.044 251.775,206.098 299.900 M393.668 299.800 C 393.597 347.760,393.475 387.339,393.397 387.752 C 393.309 388.218,393.398 388.362,393.629 388.131 C 393.858 387.902,393.963 353.982,393.900 300.179 L 393.798 212.600 393.668 299.800 M325.232 236.854 C 325.214 236.994,325.469 237.624,325.798 238.254 L 326.395 239.400 326.398 238.276 C 326.399 237.658,326.235 237.255,326.034 237.379 C 325.833 237.503,325.577 237.379,325.466 237.102 C 325.354 236.826,325.249 236.714,325.232 236.854 M323.470 240.610 C 323.321 241.045,323.091 241.670,322.958 242.000 C 322.826 242.330,323.019 242.190,323.388 241.690 C 323.758 241.189,323.988 240.564,323.900 240.300 C 323.810 240.031,323.622 240.167,323.470 240.610 M320.936 243.338 C 320.791 243.592,320.819 243.667,320.999 243.503 C 321.179 243.340,321.552 243.394,321.828 243.623 C 322.131 243.875,322.420 243.891,322.560 243.665 C 322.687 243.459,322.433 243.197,321.996 243.083 C 321.559 242.969,321.082 243.083,320.936 243.338 M334.415 259.818 C 334.677 260.133,335.050 260.293,335.245 260.172 C 335.861 259.791,335.631 259.373,334.770 259.308 C 334.092 259.257,334.027 259.351,334.415 259.818 M280.800 273.200 C 280.483 273.396,280.356 273.689,280.518 273.852 C 280.681 274.014,281.023 273.937,281.280 273.680 C 281.884 273.076,281.547 272.738,280.800 273.200 M307.600 279.467 C 307.600 279.760,307.761 280.000,307.957 280.000 C 308.154 280.000,308.407 279.760,308.519 279.467 C 308.632 279.173,308.471 278.933,308.162 278.933 C 307.853 278.933,307.600 279.173,307.600 279.467 M307.099 283.834 C 306.858 284.075,307.112 286.045,307.424 286.358 C 307.521 286.454,307.600 285.873,307.600 285.067 C 307.600 283.588,307.527 283.407,307.099 283.834 M295.600 306.324 C 295.600 306.539,295.885 306.824,296.233 306.957 C 296.623 307.107,296.806 307.018,296.708 306.725 C 296.509 306.127,295.600 305.798,295.600 306.324 M298.000 312.413 C 298.000 312.893,299.025 313.156,299.573 312.817 C 299.909 312.609,299.732 312.442,299.037 312.309 C 298.467 312.200,298.000 312.247,298.000 312.413 M294.624 361.013 C 294.196 361.336,293.926 361.614,294.024 361.631 C 294.121 361.647,294.529 361.724,294.931 361.800 C 295.415 361.892,295.591 361.755,295.453 361.394 C 295.325 361.060,295.583 360.784,296.122 360.679 C 296.900 360.528,296.909 360.504,296.200 360.467 C 295.760 360.444,295.051 360.690,294.624 361.013 M272.559 363.300 C 272.401 363.575,272.414 363.671,272.588 363.514 C 272.763 363.357,273.287 363.431,273.753 363.680 C 274.516 364.086,274.546 364.065,274.051 363.465 C 273.396 362.672,272.950 362.622,272.559 363.300 M212.400 393.700 C 212.400 393.865,251.820 394.000,300.000 394.000 C 348.180 394.000,387.600 393.865,387.600 393.700 C 387.600 393.535,348.180 393.400,300.000 393.400 C 251.820 393.400,212.400 393.535,212.400 393.700 " stroke="none" fill="#3c547c" fill-rule="evenodd"  data-darkreader-inline-fill="" data-darkreader-inline-stroke=""></path><path id="path4" d="" stroke="none" fill="#d08058" fill-rule="evenodd"  data-darkreader-inline-fill="" data-darkreader-inline-stroke=""></path></g></svg>